<?xml version="1.0" encoding="UTF-8"?>
<svg version="1.1" xmlns="http://www.w3.org/2000/svg" width="1920" height="1080">
<path d="M0 0 C0.96237076 -0.0066568 1.92474152 -0.0133136 2.91627502 -0.02017212 C4.93903713 -0.03023678 6.96183202 -0.03499107 8.98461914 -0.03466797 C12.05476164 -0.0390459 15.12346992 -0.07544508 18.19335938 -0.11328125 C20.17056807 -0.11915003 22.14778349 -0.12311901 24.125 -0.125 C25.02947372 -0.13937103 25.93394745 -0.15374207 26.86582947 -0.16854858 C33.51664501 -0.12157026 38.63175449 1.53250379 44.62890625 4.3359375 C45.59183594 4.75617188 46.55476562 5.17640625 47.546875 5.609375 C53.61880848 8.55650967 58.31510863 12.07460105 63.109375 16.79296875 C67.22272607 20.6195983 70.21333737 21.05582187 75.62890625 21.3359375 C75.66757812 22.33173828 75.66757812 22.33173828 75.70703125 23.34765625 C76.07331201 29.04998168 76.59353001 32.08243282 80.62890625 36.3359375 C81.56480148 37.71895181 82.47935648 39.11651224 83.37890625 40.5234375 C85.51446142 43.80151469 87.80278044 46.70874555 90.37890625 49.6484375 C100.64576128 62.17916385 105.82341461 75.9664345 105.86914062 91.90576172 C105.87877681 93.93369678 105.90979299 95.96058668 105.94140625 97.98828125 C105.98845688 109.88032856 103.66641552 118.23002576 97.62890625 128.3359375 C97.07847656 129.33238281 96.52804687 130.32882812 95.9609375 131.35546875 C92.72862099 137.14224289 89.73646854 142.05983884 84.62890625 146.3359375 C83.96890625 146.3359375 83.30890625 146.3359375 82.62890625 146.3359375 C82.63414307 146.91037598 82.63937988 147.48481445 82.64477539 148.07666016 C82.66569201 150.70474127 82.67861284 153.33280479 82.69140625 155.9609375 C82.69978516 156.86457031 82.70816406 157.76820313 82.71679688 158.69921875 C82.7338252 163.36498039 82.59720048 167.74607035 81.62890625 172.3359375 C80.70851563 172.23410156 79.788125 172.13226562 78.83984375 172.02734375 C71.33411906 171.70056117 71.33411906 171.70056117 64.70556641 174.79101562 C62.17536363 177.28291254 59.90170725 179.8935843 57.72607422 182.69946289 C52.87349287 188.82011177 47.52384453 191.70410446 39.70301819 192.71360779 C36.48798481 192.87771178 33.29729079 192.91671952 30.078125 192.90234375 C28.90232376 192.90854233 27.72652252 192.91474091 26.51509094 192.92112732 C24.04009829 192.92819594 21.56505779 192.92510361 19.09008789 192.91235352 C15.3371466 192.89851398 11.58671483 192.93257812 7.83398438 192.97070312 C-15.02318106 193.04552948 -15.02318106 193.04552948 -25.37109375 187.3359375 C-26.7698616 186.69319355 -28.16949582 186.05232883 -29.5703125 185.4140625 C-43.58166893 178.07104479 -52.69545632 168.4989736 -61.37109375 155.3359375 C-61.98339844 154.61921875 -62.59570312 153.9025 -63.2265625 153.1640625 C-65.82030302 149.74353767 -67.62777211 146.18624293 -69.49609375 142.3359375 C-69.84285156 141.63726563 -70.18960938 140.93859375 -70.546875 140.21875 C-71.94002383 137.38975047 -73.27203561 134.58705537 -74.4296875 131.65234375 C-75.49742548 129.02508806 -76.86306598 126.71207595 -78.30859375 124.2734375 C-80.92806076 119.5142131 -82.38757982 115.16655737 -83.515625 109.875 C-84.18808688 107.0930344 -84.96022991 104.49708951 -85.8828125 101.796875 C-91.07789022 86.41993146 -91.40175414 73.13957117 -89.18359375 57.1484375 C-89.08312744 56.38265381 -88.98266113 55.61687012 -88.87915039 54.82788086 C-87.13416803 44.15993298 -79.41700659 35.22010143 -71.37109375 28.3359375 C-68.18739456 26.16423261 -64.80017149 24.47938449 -61.31640625 22.8359375 C-58.30009775 21.29978038 -55.97359338 19.48451278 -53.37109375 17.3359375 C-49.40711546 14.94304817 -45.28944777 13.25441511 -40.87109375 11.8984375 C-37.68581237 10.90030994 -35.15005114 9.68306196 -32.37109375 7.8359375 C-28.25635068 5.12265147 -24.12204613 3.58694931 -19.37109375 2.3359375 C-18.75902069 2.17368179 -18.14694763 2.01142609 -17.5163269 1.84425354 C-11.62426719 0.39801312 -6.05272082 0.01486073 0 0 Z " fill="#7B7DA9" transform="translate(760.37109375,383.6640625)"/>
<path d="M0 0 C5.55940594 5.55940594 5.55940594 5.55940594 7.8125 9.1875 C9.92067698 12.48119126 12.17188223 15.37645441 14.75 18.3125 C25.01685503 30.84322635 30.19450836 44.630497 30.24023438 60.56982422 C30.24987056 62.59775928 30.28088674 64.62464918 30.3125 66.65234375 C30.35955063 78.54439106 28.03750927 86.89408826 22 97 C21.44957031 97.99644531 20.89914062 98.99289062 20.33203125 100.01953125 C17.09971474 105.80630539 14.10756229 110.72390134 9 115 C8.34 115 7.68 115 7 115 C7 110.71 7 106.42 7 102 C2.05 102 -2.9 102 -8 102 C-8.0928125 105.2175 -8.0928125 105.2175 -8.1875 108.5 C-8.64076036 114.82010918 -9.61627441 119.32845404 -14 124 C-14.63929443 124.68594238 -15.27858887 125.37188477 -15.93725586 126.07861328 C-20.42240121 128.89233141 -24.36097668 128.50037983 -29.55078125 128.390625 C-30.89964417 128.38458252 -30.89964417 128.38458252 -32.27575684 128.37841797 C-35.62154668 128.35755524 -38.96704472 128.30170967 -42.3125 128.25 C-49.799375 128.1675 -57.28625 128.085 -65 128 C-65 108.53 -65 89.06 -65 69 C-48.5 69 -32 69 -15 69 C-15 64.71 -15 60.42 -15 56 C-31.5 56 -48 56 -65 56 C-65 38.51 -65 21.02 -65 3 C-55.533125 2.87625 -55.533125 2.87625 -45.875 2.75 C-43.8935498 2.71358398 -41.91209961 2.67716797 -39.87060547 2.63964844 C-38.28614381 2.62795733 -36.70167007 2.6177665 -35.1171875 2.609375 C-34.30580322 2.58891113 -33.49441895 2.56844727 -32.65844727 2.54736328 C-27.27109483 2.54407128 -24.30122611 3.46209473 -20 7 C-15.36035105 11.8053507 -14.88319099 17.56490908 -14.875 23.9375 C-14.91625 25.608125 -14.9575 27.27875 -15 29 C-10.05 29 -5.1 29 0 29 C0 19.43 0 9.86 0 0 Z " fill="#7C7EAA" transform="translate(836,415)"/>
<path d="M0 0 C0 12.87 0 25.74 0 39 C-4.95 39 -9.9 39 -15 39 C-15.8125 31.875 -15.8125 31.875 -16.04614258 29.66748047 C-16.76660488 23.86126295 -17.98924439 19.68776049 -22.54272461 15.86572266 C-26.9254432 13.50058351 -30.21946405 13.39743347 -35.1171875 13.390625 C-35.87781494 13.37499512 -36.63844238 13.35936523 -37.42211914 13.34326172 C-40.2394331 13.29101121 -43.05729103 13.27245552 -45.875 13.25 C-52.18625 13.1675 -58.4975 13.085 -65 13 C-65 30.49 -65 47.98 -65 66 C-48.5 66 -32 66 -15 66 C-15 70.29 -15 74.58 -15 79 C-31.5 79 -48 79 -65 79 C-65 98.47 -65 117.94 -65 138 C-57.53375 137.938125 -50.0675 137.87625 -42.375 137.8125 C-38.85465088 137.80246948 -38.85465088 137.80246948 -35.26318359 137.79223633 C-33.39157307 137.76577884 -31.51998704 137.73749912 -29.6484375 137.70703125 C-28.68591064 137.71101929 -27.72338379 137.71500732 -26.73168945 137.71911621 C-22.25467148 137.62461298 -19.01804956 137.50855619 -15.44702148 134.6340332 C-10.88080797 129.71885037 -9.61877739 125.19926178 -8.8125 118.625 C-8.544375 116.43875 -8.27625 114.2525 -8 112 C-3.05 112 1.9 112 7 112 C7.02302629 116.58990733 7.04291866 121.17961206 7.05493164 125.76953125 C7.05994272 127.32910849 7.06675337 128.88868108 7.07543945 130.44824219 C7.08764686 132.69727736 7.09326068 134.9462501 7.09765625 137.1953125 C7.10281754 137.8861795 7.10797882 138.57704651 7.11329651 139.28884888 C7.11376607 143.39341805 6.68542537 146.88744778 6 151 C-34.92 151 -75.84 151 -118 151 C-118 147.37 -118 143.74 -118 140 C-116.78763672 139.94392578 -116.78763672 139.94392578 -115.55078125 139.88671875 C-114.48214844 139.82097656 -113.41351562 139.75523437 -112.3125 139.6875 C-110.72888672 139.60048828 -110.72888672 139.60048828 -109.11328125 139.51171875 C-105.68579696 138.94835559 -103.74962133 138.10435118 -101 136 C-99.14843102 133.01501643 -98.74799543 130.74779378 -98.73930359 127.26271057 C-98.72867638 125.83910217 -98.72867638 125.83910217 -98.71783447 124.38673401 C-98.72031189 123.35233688 -98.72278931 122.31793976 -98.7253418 121.25219727 C-98.72023087 120.15749115 -98.71511993 119.06278503 -98.70985413 117.93490601 C-98.69594072 114.31201732 -98.6969162 110.68931849 -98.69921875 107.06640625 C-98.69533288 104.55061268 -98.69099843 102.03481977 -98.68623352 99.51902771 C-98.67876761 94.24403261 -98.67892727 88.96908675 -98.68432617 83.6940918 C-98.69036635 77.60125037 -98.6780529 71.50863985 -98.6567561 65.41583782 C-98.63700479 59.54893744 -98.63396767 53.68212744 -98.63749123 47.8151989 C-98.63697733 45.32130326 -98.63172692 42.82740397 -98.62167931 40.33352852 C-98.60935961 36.84790317 -98.61608016 33.36281387 -98.62768555 29.87719727 C-98.62004181 28.84482437 -98.61239807 27.81245148 -98.60452271 26.74879456 C-98.61688413 19.8662131 -98.61688413 19.8662131 -102 14 C-105.52311886 12.06968614 -108.83967284 11.66219233 -112.8125 11.375 C-113.78832031 11.30023438 -114.76414062 11.22546875 -115.76953125 11.1484375 C-116.50558594 11.09945313 -117.24164062 11.05046875 -118 11 C-118 7.7 -118 4.4 -118 1 C-103.79595069 0.86918596 -89.59189781 0.73876653 -75.38784027 0.60884857 C-68.79208703 0.54850791 -62.19633509 0.48803217 -55.60058594 0.42724609 C-49.23340643 0.3685715 -42.86622373 0.31025387 -36.4990387 0.25218201 C-34.07182194 0.22998219 -31.64460635 0.20765453 -29.21739197 0.18519592 C-25.81355078 0.15372276 -22.40970571 0.12270728 -19.00585938 0.09179688 C-18.00604034 0.08244614 -17.00622131 0.0730954 -15.97610474 0.0634613 C-14.57127335 0.05084007 -14.57127335 0.05084007 -13.13806152 0.03796387 C-12.33425804 0.03058952 -11.53045456 0.02321518 -10.7022934 0.01561737 C-7.13491804 -0.00499957 -3.56743493 0 0 0 Z " fill="#010102" transform="translate(836,405)"/>
<path d="M0 0 C0.66 -0.99 1.32 -1.98 2 -3 C5.125 -3.1875 5.125 -3.1875 8 -3 C7.48351265 4.78808563 6.55123466 12.34925042 5 20 C3.02 20 1.04 20 -1 20 C-1.18175781 19.24074219 -1.36351562 18.48148437 -1.55078125 17.69921875 C-1.92783203 16.20841797 -1.92783203 16.20841797 -2.3125 14.6875 C-2.55613281 13.70136719 -2.79976562 12.71523438 -3.05078125 11.69921875 C-4.28823547 8.18036744 -5.70026425 6.64986787 -9 5 C-15.62171785 4.17228527 -20.54176279 6.26172179 -26 10 C-32.9913306 16.51283649 -36.40526786 25.039162 -37.34375 34.4453125 C-37.5454176 41.82298549 -36.9623243 46.67860608 -31.9375 52.3125 C-26.5048762 55.43336899 -21.35016109 55.55062347 -15.33203125 54.140625 C-11.64628588 51.77276045 -11.42884509 51.34687129 -10.44140625 47.33203125 C-10.11688452 45.49749006 -9.82489605 43.65695223 -9.5625 41.8125 C-9.40330078 40.87212891 -9.24410156 39.93175781 -9.08007812 38.96289062 C-8.69180177 36.64499843 -8.33315173 34.32634546 -8 32 C-10.31 32 -12.62 32 -15 32 C-14.67 30.02 -14.34 28.04 -14 26 C-6.08 26 1.84 26 10 26 C10 24.68 10 23.36 10 22 C12.4566947 20.99580363 14.91518353 19.99649499 17.375 19 C18.07367187 18.71382813 18.77234375 18.42765625 19.4921875 18.1328125 C24.7734375 16 24.7734375 16 27 16 C25.68445403 24.98646288 24.12186693 33.90043179 22.375 42.8125 C22.14554688 43.99392578 21.91609375 45.17535156 21.6796875 46.39257812 C21.12203522 49.2621638 20.56211508 52.13128583 20 55 C21.258125 55.020625 22.51625 55.04125 23.8125 55.0625 C24.87404297 55.07990234 24.87404297 55.07990234 25.95703125 55.09765625 C28.20305461 55.08263217 28.20305461 55.08263217 31 54 C31.93894175 51.75489513 31.93894175 51.75489513 32.5 48.9375 C32.74363281 47.86886719 32.98726562 46.80023437 33.23828125 45.69921875 C34.58691854 39.14968276 35.82221542 32.58222873 37 26 C35.35 26.33 33.7 26.66 32 27 C31.875 24.25 31.875 24.25 33 21 C37.63458899 18.25516039 42.73717111 16.95601748 48 16 C48 17.32 48 18.64 48 20 C48.61875 19.505 49.2375 19.01 49.875 18.5 C54.10958605 16.4673987 58.37717926 16.00491825 63 17 C65.21179794 19.10508839 65.91554225 20.47255306 66.3984375 23.48828125 C66.3381778 30.74957521 65.27365441 37.50100716 63.65625 44.5546875 C63.03742416 47.80352319 62.87904789 50.70405499 63 54 C66.28696233 54.79953138 67.71023192 55.09658936 71 54 C71.93894175 51.75489513 71.93894175 51.75489513 72.5 48.9375 C72.74363281 47.86886719 72.98726562 46.80023437 73.23828125 45.69921875 C74.58691854 39.14968276 75.82221542 32.58222873 77 26 C75.35 26.33 73.7 26.66 72 27 C71.875 24.25 71.875 24.25 73 21 C77.63458899 18.25516039 82.73717111 16.95601748 88 16 C88 17.32 88 18.64 88 20 C88.928125 19.2575 88.928125 19.2575 89.875 18.5 C94.10958605 16.4673987 98.37717926 16.00491825 103 17 C105.21179794 19.10508839 105.91554225 20.47255306 106.3984375 23.48828125 C106.3381778 30.74957521 105.27365441 37.50100716 103.65625 44.5546875 C103.03482425 47.81717268 102.80239516 50.69011896 103 54 C103.33 54.33 103.66 54.66 104 55 C105.91424457 54.8981629 105.91424457 54.8981629 108.0625 54.5625 C109.361875 54.376875 110.66125 54.19125 112 54 C115.22713072 45.54799096 116.56051399 36.8921441 118 28 C116.02 28 114.04 28 112 28 C112.03515625 25.2109375 112.03515625 25.2109375 113 22 C115.58463916 20.51696029 117.66603463 19.5616171 120.4375 18.625 C121.47874023 18.23634766 121.47874023 18.23634766 122.54101562 17.83984375 C127.56894841 16 127.56894841 16 130 16 C128.68445403 24.98646288 127.12186693 33.90043179 125.375 42.8125 C125.14554688 43.99392578 124.91609375 45.17535156 124.6796875 46.39257812 C124.12203522 49.2621638 123.56211508 52.13128583 123 55 C125.97 55.495 125.97 55.495 129 56 C128.67 57.65 128.34 59.3 128 61 C86.42 61 44.84 61 2 61 C2.33 59.35 2.66 57.7 3 56 C4.11503906 55.66355469 5.23007813 55.32710937 6.37890625 54.98046875 C8.35410587 54.36851424 8.35410587 54.36851424 10 53 C11.66220836 48.89936701 12.26614329 44.67030286 12.9375 40.3125 C13.14439453 39.13365234 13.35128906 37.95480469 13.56445312 36.74023438 C14.07102339 33.83040054 14.54815703 30.91874701 15 28 C13.02 28 11.04 28 9 28 C8.67 29.32 8.34 30.64 8 32 C5.525 32.495 5.525 32.495 3 33 C2.53844354 34.79083906 2.08096796 36.5827299 1.625 38.375 C1.3465625 39.46554687 1.068125 40.55609375 0.78125 41.6796875 C0.08985038 44.61813589 -0.41237539 47.5196299 -0.875 50.5 C-1.52009614 53.7254807 -1.88052338 54.85880036 -4.0625 57.4375 C-13.43526207 62.42301174 -24.17312286 63.97731633 -34.59765625 61.34375 C-40.4118569 58.74472389 -44.7650892 54.04921469 -47.140625 48.18359375 C-50.13049584 37.10748131 -47.8518957 25.48726473 -42.6796875 15.43359375 C-36.78756165 5.91925938 -28.74373465 0.09726147 -18 -2.8125 C-11.69385859 -3.20663384 -5.90575602 -2.27144462 0 0 Z M48.96484375 27.5 C45.33928145 30.55712763 44.56455691 33.27742544 43.6875 37.75 C43.53216797 38.42804688 43.37683594 39.10609375 43.21679688 39.8046875 C42.17538999 44.50666193 41.54158808 49.2168657 41 54 C43.89579382 56.37222995 43.89579382 56.37222995 47.5625 55.75 C51.04592612 55.3141556 51.04592612 55.3141556 53 53 C53.64314816 51.09386572 53.64314816 51.09386572 54.0703125 48.89453125 C54.24433594 48.07533203 54.41835937 47.25613281 54.59765625 46.41210938 C54.77167969 45.55423828 54.94570312 44.69636719 55.125 43.8125 C55.30675781 42.97396484 55.48851562 42.13542969 55.67578125 41.27148438 C56.68495677 36.41150751 57.20141094 31.96142289 57 27 C53.54514501 25.78063941 52.30743375 25.84806363 48.96484375 27.5 Z M88.96484375 27.5 C85.33928145 30.55712763 84.56455691 33.27742544 83.6875 37.75 C83.53216797 38.42804688 83.37683594 39.10609375 83.21679688 39.8046875 C82.17538999 44.50666193 81.54158808 49.2168657 81 54 C83.89579382 56.37222995 83.89579382 56.37222995 87.5625 55.75 C91.04592612 55.3141556 91.04592612 55.3141556 93 53 C93.64314816 51.09386572 93.64314816 51.09386572 94.0703125 48.89453125 C94.24433594 48.07533203 94.41835937 47.25613281 94.59765625 46.41210938 C94.77167969 45.55423828 94.94570312 44.69636719 95.125 43.8125 C95.30675781 42.97396484 95.48851562 42.13542969 95.67578125 41.27148438 C96.68495677 36.41150751 97.20141094 31.96142289 97 27 C93.54514501 25.78063941 92.30743375 25.84806363 88.96484375 27.5 Z M25 57 C26 60 26 60 26 60 Z " fill="#1B21D4" transform="translate(1489,471)"/>
<path d="M0 0 C-1.66666667 8.33333333 -3.33333333 16.66666667 -5 25 C-4.01 24.34 -3.02 23.68 -2 23 C2.25390299 20.58399019 5.15147518 20.36412789 10 21 C12.99588753 22.99725836 13.81591352 24.23872784 14.65991211 27.72900391 C15.03360705 31.32323567 14.67103243 34.16377879 14.00390625 37.7109375 C13.66069336 39.57685547 13.66069336 39.57685547 13.31054688 41.48046875 C13.06369141 42.76566406 12.81683594 44.05085938 12.5625 45.375 C12.31612682 46.69644144 12.07067499 48.01805502 11.82617188 49.33984375 C11.22648264 52.56170354 10.61747516 55.78150993 10 59 C11.98 59.495 11.98 59.495 14 60 C14 61.65 14 63.3 14 65 C-0.33333333 65 -14.66666667 65 -29 65 C-31.04425595 65.27682633 -33.08458564 65.57509455 -35.125 65.87890625 C-37 66 -37 66 -39 65 C-39 64.01 -39 63.02 -39 62 C-39.58007812 62.28875 -40.16015625 62.5775 -40.7578125 62.875 C-49.33929163 66.95332671 -49.33929163 66.95332671 -54 66 C-56.875 64 -56.875 64 -59 61 C-59.71127538 55.39870634 -59.19686562 51.79529843 -56 47 C-50.9881288 41.85961928 -44.57864092 38.76245961 -38 36 C-37.01 36 -36.02 36 -35 36 C-35 33.36 -35 30.72 -35 28 C-39.14093698 27.79029441 -39.14093698 27.79029441 -43 29 C-43.144375 29.94875 -43.28875 30.8975 -43.4375 31.875 C-44 35 -44 35 -45.25 36.9375 C-47 38 -47 38 -49.625 37.75 C-52 37 -52 37 -53 36 C-53.42235195 31.3541286 -52.96870879 28.63906239 -50 25 C-44.97190637 21.45075744 -41.14790371 20.19517155 -35 20 C-31.07708537 20.88820709 -28.50260956 21.82666223 -26 25 C-24.62077025 32.51815433 -26.69201783 40.29144945 -28.34375 47.6171875 C-28.90953672 50.53368335 -29.13477477 53.04618635 -29 56 C-27.35 55.34 -25.7 54.68 -24 54 C-24 55.65 -24 57.3 -24 59 C-20.28875539 56.52583693 -20.38861206 55.56767562 -19.53515625 51.3125 C-19.2942627 50.1462207 -19.05336914 48.97994141 -18.80517578 47.77832031 C-18.56009277 46.53147461 -18.31500977 45.28462891 -18.0625 44 C-17.54091796 41.45301162 -17.01878162 38.90613668 -16.49609375 36.359375 C-16.24327637 35.10833984 -15.99045898 33.85730469 -15.72998047 32.56835938 C-14.75096821 27.78265931 -13.69884749 23.01516727 -12.625 18.25 C-12.30467629 16.81771084 -11.98436246 15.38541947 -11.6640625 13.953125 C-11.33535156 12.49132812 -11.33535156 12.49132812 -11 11 C-13.475 10.505 -13.475 10.505 -16 10 C-15.8671875 7.67578125 -15.8671875 7.67578125 -15 5 C-12.3828125 3.41796875 -12.3828125 3.41796875 -9.125 2.1875 C-8.05507812 1.76855469 -6.98515625 1.34960938 -5.8828125 0.91796875 C-3 0 -3 0 0 0 Z M-3.125 31.375 C-6.96551915 34.88156096 -7.83056579 38.03571304 -9 43 C-9.30744141 44.28583984 -9.30744141 44.28583984 -9.62109375 45.59765625 C-10.61118691 50.12477187 -11.24515348 54.34208391 -11 59 C-8.19084526 60.40457737 -6.11189466 60.24895157 -3 60 C0.46555183 58.30016659 0.99347427 57.01905352 2.265625 53.3046875 C2.61265966 51.83245458 2.93999659 50.35547314 3.25 48.875 C3.41983398 48.11324463 3.58966797 47.35148926 3.76464844 46.56665039 C4.88418192 41.28603397 5.39313482 36.40560371 5 31 C1.57911455 29.79262866 0.24796744 29.89089433 -3.125 31.375 Z M-38 43 C-39.92892646 43.88687009 -39.92892646 43.88687009 -41.9375 45.25 C-42.62714844 45.68828125 -43.31679687 46.1265625 -44.02734375 46.578125 C-45.91800923 47.9409017 -47.50018813 49.21606228 -49 51 C-49.25069913 53.62570704 -49.25069913 53.62570704 -49 56 C-46.03843493 56.93077759 -44.36695254 57.11358055 -41.375 56.1875 C-37.74816181 52.84699114 -37.08488862 48.70118402 -36 44 C-36.66 43.67 -37.32 43.34 -38 43 Z " fill="#1B21D3" transform="translate(1292,467)"/>
<path d="M0 0 C5.94 0 11.88 0 18 0 C18.49371094 2.78050781 18.98742188 5.56101562 19.49609375 8.42578125 C19.97545377 11.11655159 20.45558477 13.8071833 20.93579102 16.49780273 C21.26928068 18.36875275 21.6019678 20.23984601 21.93383789 22.11108398 C22.41081534 24.79969677 22.89067026 27.48778237 23.37109375 30.17578125 C23.51904892 31.01337479 23.66700409 31.85096832 23.81944275 32.71394348 C24.38989508 35.89296888 24.97712333 38.93136999 26 42 C26.40202637 41.29617188 26.80405273 40.59234375 27.21826172 39.8671875 C32.5602876 30.52740587 32.5602876 30.52740587 34.97143555 26.42431641 C35.67006209 25.23357615 36.36838651 24.04265857 37.06640625 22.8515625 C37.41215195 22.26170563 37.75789764 21.67184875 38.11412048 21.06411743 C40.0843541 17.67230568 41.8996589 14.2496969 43.58984375 10.7109375 C45.69885261 6.48198283 47.47833159 3.22225531 51 0 C56.93304757 -1.75606483 62.98726505 -0.94317411 69 0 C69 1.65 69 3.3 69 5 C67.74832031 5.22171875 66.49664063 5.4434375 65.20703125 5.671875 C62.91918362 6.41967318 62.91918362 6.41967318 61 8 C59.10199762 12.25215668 58.44501747 16.67541978 57.6875 21.25 C57.33051025 23.14878906 57.33051025 23.14878906 56.96630859 25.0859375 C56.49734962 27.59048057 56.04221558 30.09765825 55.60205078 32.60742188 C54.86533657 36.75883337 54.00277578 40.87677086 53.125 45 C52.4009281 48.5288102 52 51.37601478 52 55 C53.98 55.66 55.96 56.32 58 57 C57.67 58.65 57.34 60.3 57 62 C48.75 62 40.5 62 32 62 C32.33 60.02 32.66 58.04 33 56 C34.093125 55.855625 35.18625 55.71125 36.3125 55.5625 C38.29204334 55.07295079 38.29204334 55.07295079 40 54 C41.00721052 52.25888307 41.00721052 52.25888307 41.5625 50.11328125 C41.92371948 48.90031372 41.92371948 48.90031372 42.29223633 47.6628418 C43.53013705 43.0054485 44.64247352 38.32919776 45.6875 33.625 C45.91244141 32.64144531 46.13738281 31.65789062 46.36914062 30.64453125 C47.59232176 25.37254375 47.59232176 25.37254375 48 20 C47.56244385 20.73935791 47.1248877 21.47871582 46.67407227 22.24047852 C30.60322433 49.39131965 30.60322433 49.39131965 23 62 C21.35 61.67 19.7 61.34 18 61 C15.69 46.81 13.38 32.62 11 18 C9.22980615 24.19567847 7.96842533 30.174332 6.875 36.5 C6.69324219 37.50675781 6.51148438 38.51351562 6.32421875 39.55078125 C5.412758 44.77968765 4.7763699 49.69251238 5 55 C6.65 55.66 8.3 56.32 10 57 C10 58.65 10 60.3 10 62 C2.74 62 -4.52 62 -12 62 C-11.67 60.35 -11.34 58.7 -11 57 C-10.030625 56.53078125 -9.06125 56.0615625 -8.0625 55.578125 C-4.7997827 54.29380882 -4.7997827 54.29380882 -3.75 51.296875 C-3.5025 50.12640625 -3.255 48.9559375 -3 47.75 C-2.8546582 47.09193359 -2.70931641 46.43386719 -2.55957031 45.75585938 C-2.00527976 43.17666559 -1.50240214 40.58982385 -1 38 C-0.61341102 36.05299733 -0.22682084 34.1059949 0.15979004 32.15899658 C1.81911087 23.78129052 3.42189684 15.39335829 5 7 C3.02 6.34 1.04 5.68 -1 5 C-0.67 3.35 -0.34 1.7 0 0 Z M49 16 C50 18 50 18 50 18 Z " fill="#1B21D3" transform="translate(1340,470)"/>
<path d="M0 0 C5.94 0 11.88 0 18 0 C18.49371094 2.78050781 18.98742188 5.56101562 19.49609375 8.42578125 C19.97545377 11.11655159 20.45558477 13.8071833 20.93579102 16.49780273 C21.26928068 18.36875275 21.6019678 20.23984601 21.93383789 22.11108398 C22.41081534 24.79969677 22.89067026 27.48778237 23.37109375 30.17578125 C23.51904892 31.01337479 23.66700409 31.85096832 23.81944275 32.71394348 C24.38989508 35.89296888 24.97712333 38.93136999 26 42 C26.40202637 41.29617188 26.80405273 40.59234375 27.21826172 39.8671875 C32.5602876 30.52740587 32.5602876 30.52740587 34.97143555 26.42431641 C35.67006209 25.23357615 36.36838651 24.04265857 37.06640625 22.8515625 C37.41215195 22.26170563 37.75789764 21.67184875 38.11412048 21.06411743 C40.0843541 17.67230568 41.8996589 14.2496969 43.58984375 10.7109375 C45.69885261 6.48198283 47.47833159 3.22225531 51 0 C56.93304757 -1.75606483 62.98726505 -0.94317411 69 0 C69 1.65 69 3.3 69 5 C67.74832031 5.22171875 66.49664063 5.4434375 65.20703125 5.671875 C62.91918362 6.41967318 62.91918362 6.41967318 61 8 C59.10199762 12.25215668 58.44501747 16.67541978 57.6875 21.25 C57.33051025 23.14878906 57.33051025 23.14878906 56.96630859 25.0859375 C56.49734962 27.59048057 56.04221558 30.09765825 55.60205078 32.60742188 C54.86533657 36.75883337 54.00277578 40.87677086 53.125 45 C52.4009281 48.5288102 52 51.37601478 52 55 C53.98 55.66 55.96 56.32 58 57 C57.67 58.65 57.34 60.3 57 62 C48.75 62 40.5 62 32 62 C32.33 60.02 32.66 58.04 33 56 C34.093125 55.855625 35.18625 55.71125 36.3125 55.5625 C38.29204334 55.07295079 38.29204334 55.07295079 40 54 C41.00721052 52.25888307 41.00721052 52.25888307 41.5625 50.11328125 C41.92371948 48.90031372 41.92371948 48.90031372 42.29223633 47.6628418 C43.53013705 43.0054485 44.64247352 38.32919776 45.6875 33.625 C45.91244141 32.64144531 46.13738281 31.65789062 46.36914062 30.64453125 C47.59232176 25.37254375 47.59232176 25.37254375 48 20 C47.56244385 20.73935791 47.1248877 21.47871582 46.67407227 22.24047852 C30.60322433 49.39131965 30.60322433 49.39131965 23 62 C21.35 61.67 19.7 61.34 18 61 C15.69 46.81 13.38 32.62 11 18 C9.22980615 24.19567847 7.96842533 30.174332 6.875 36.5 C6.69324219 37.50675781 6.51148438 38.51351562 6.32421875 39.55078125 C5.412758 44.77968765 4.7763699 49.69251238 5 55 C6.65 55.66 8.3 56.32 10 57 C10 58.65 10 60.3 10 62 C2.74 62 -4.52 62 -12 62 C-11.67 60.35 -11.34 58.7 -11 57 C-10.030625 56.53078125 -9.06125 56.0615625 -8.0625 55.578125 C-4.7997827 54.29380882 -4.7997827 54.29380882 -3.75 51.296875 C-3.5025 50.12640625 -3.255 48.9559375 -3 47.75 C-2.8546582 47.09193359 -2.70931641 46.43386719 -2.55957031 45.75585938 C-2.00527976 43.17666559 -1.50240214 40.58982385 -1 38 C-0.61341102 36.05299733 -0.22682084 34.1059949 0.15979004 32.15899658 C1.81911087 23.78129052 3.42189684 15.39335829 5 7 C3.02 6.34 1.04 5.68 -1 5 C-0.67 3.35 -0.34 1.7 0 0 Z M49 16 C50 18 50 18 50 18 Z " fill="#1B21D3" transform="translate(1040,470)"/>
<path d="M0 0 C14.85 0 29.7 0 45 0 C43.875 11.25 43.875 11.25 42 16 C40.35 16 38.7 16 37 16 C36.34 13.36 35.68 10.72 35 8 C28.73 7.67 22.46 7.34 16 7 C15.690625 9.041875 15.38125 11.08375 15.0625 13.1875 C14.46246235 17.14774848 13.81964132 21.07901312 13 25 C15.10353495 25.0810206 17.20795952 25.13919907 19.3125 25.1875 C20.48425781 25.22230469 21.65601563 25.25710938 22.86328125 25.29296875 C25.96076965 25.27824625 25.96076965 25.27824625 27.84375 23.625 C29.12315306 21.82692003 30.09791223 20.01234964 31 18 C32.98 18 34.96 18 37 18 C36.28621973 26.13709505 34.67226118 34.01731928 33 42 C31.02 42 29.04 42 27 42 C27 39.36 27 36.72 27 34 C21.72 33.67 16.44 33.34 11 33 C9.68 40.26 8.36 47.52 7 55 C9.68125 54.9175 12.3625 54.835 15.125 54.75 C16.37434326 54.72631348 16.37434326 54.72631348 17.64892578 54.70214844 C22.81107018 54.46812137 25.92452962 53.42413949 30 50 C30.639375 48.9275 31.27875 47.855 31.9375 46.75 C32.618125 45.8425 33.29875 44.935 34 44 C37.75 43.625 37.75 43.625 41 44 C40.20875876 46.06266324 39.41698909 48.12512379 38.625 50.1875 C38.18414063 51.33605469 37.74328125 52.48460937 37.2890625 53.66796875 C36.21171783 56.45274149 35.10893741 59.22765648 34 62 C18.82 62 3.64 62 -12 62 C-11.505 59.03 -11.505 59.03 -11 56 C-8.69 55.34 -6.38 54.68 -4 54 C-1.42694134 44.35462368 0.7638256 34.65763937 2.75 24.875 C2.97260498 23.79677979 3.19520996 22.71855957 3.42456055 21.60766602 C3.62992432 20.57955811 3.83528809 19.5514502 4.046875 18.4921875 C4.23088867 17.57808105 4.41490234 16.66397461 4.60449219 15.72216797 C5.03182379 12.78096587 5.06654973 9.9680089 5 7 C2.03 6.505 2.03 6.505 -1 6 C-0.67 4.02 -0.34 2.04 0 0 Z " fill="#1B21D3" transform="translate(882,470)"/>
<path d="M0 0 C0 1.32 0 2.64 0 4 C0.495 3.505 0.99 3.01 1.5 2.5 C5.21440907 0.27135456 7.70088603 0.58395671 12 1 C12.66 1.99 13.32 2.98 14 4 C17.51705958 3.34728444 20.89325077 2.48606976 24.3125 1.4375 C25.875 0.95833333 27.4375 0.47916667 29 0 C27.68445403 8.98646288 26.12186693 17.90043179 24.375 26.8125 C24.03082031 28.58463867 24.03082031 28.58463867 23.6796875 30.39257812 C23.12203522 33.2621638 22.56211508 36.13128583 22 39 C24.97 39.495 24.97 39.495 28 40 C27.67 41.65 27.34 43.3 27 45 C19.41 45 11.82 45 4 45 C4.33 43.35 4.66 41.7 5 40 C6.11503906 39.66355469 7.23007812 39.32710937 8.37890625 38.98046875 C10.35410587 38.36851424 10.35410587 38.36851424 12 37 C13.66220836 32.89936701 14.26614329 28.67030286 14.9375 24.3125 C15.14439453 23.13365234 15.35128906 21.95480469 15.56445312 20.74023438 C16.07102339 17.83040054 16.54815703 14.91874701 17 12 C16.16855469 12 15.33710937 12 14.48046875 12 C10.3203125 12 6.16015625 12 2 12 C-2.16597451 14.85416956 -2.82778414 18.27072599 -3.7734375 22.95898438 C-4.00933594 24.24772461 -4.00933594 24.24772461 -4.25 25.5625 C-4.42273438 26.42552734 -4.59546875 27.28855469 -4.7734375 28.17773438 C-5.4281373 31.5213798 -6 34.58433223 -6 38 C-4.02 38.66 -2.04 39.32 0 40 C-0.33 41.65 -0.66 43.3 -1 45 C-8.59 45 -16.18 45 -24 45 C-23.67 43.35 -23.34 41.7 -23 40 C-20.69 39.34 -18.38 38.68 -16 38 C-15.89042969 37.30777344 -15.78085937 36.61554687 -15.66796875 35.90234375 C-14.31534349 27.55565618 -12.6971792 19.28223452 -11 11 C-12.98 11.33 -14.96 11.66 -17 12 C-16.73672011 7.52424184 -16.73672011 7.52424184 -15 5 C-10.53096803 2.61494199 -5.15149246 0 0 0 Z " fill="#1B21D3" transform="translate(942,487)"/>
<path d="M0 0 C6.27 0 12.54 0 19 0 C19 1.98 19 3.96 19 6 C17.02 6.33 15.04 6.66 13 7 C14.32 12.61 15.64 18.22 17 24 C19.97 18.39 22.94 12.78 26 7 C25.34 6.34 24.68 5.68 24 5 C24.33 3.35 24.66 1.7 25 0 C29.62 0 34.24 0 39 0 C39 1.65 39 3.3 39 5 C38.38125 5.061875 37.7625 5.12375 37.125 5.1875 C36.073125 5.5896875 36.073125 5.5896875 35 6 C34.28484469 7.64644317 33.62798807 9.3183778 33 11 C14.04679864 49.8550649 14.04679864 49.8550649 5 55 C1.97168845 55.94083466 -0.83556464 56.25171645 -4 56 C-6.625 54.375 -6.625 54.375 -8 52 C-7.83849795 48.60845705 -7.41703243 47.41703243 -5 45 C-1.375 45.375 -1.375 45.375 2 46 C2 46.66 2 47.32 2 48 C6.28027335 44.03413206 6.28027335 44.03413206 9 39 C8.91611784 36.17901348 8.91611784 36.17901348 8.3125 33.125 C8.11527344 31.98289062 7.91804688 30.84078125 7.71484375 29.6640625 C6.76314583 24.7859606 5.70753778 19.93550963 4.5859375 15.09375 C4.05650573 12.29835028 3.88370705 9.83331909 4 7 C2.35 6.67 0.7 6.34 -1 6 C-0.67 4.02 -0.34 2.04 0 0 Z " fill="#1B21D3" transform="translate(1198,488)"/>
<path d="M0 0 C2.72187538 2.65382849 3.80369038 4.41107113 5 8 C5 11.3 5 14.6 5 18 C-3.58 18 -12.16 18 -21 18 C-21.2187494 26.02044718 -21.2187494 26.02044718 -19 33 C-16.02536663 34.48731668 -14.32721157 34.4313052 -11 34 C-6.8701191 31.5742707 -3.66159808 28.99239713 -1 25 C0.65 25.33 2.3 25.66 4 26 C3.26088686 32.65201827 -1.29756837 36.59577135 -6 41 C-10.68010593 44.28291356 -15.4717106 44.52650375 -21 44 C-24.4429806 42.76572393 -26.40339437 41.67889606 -28.8125 38.9375 C-32.23652859 30.46753453 -31.00785214 22.44063933 -28 14 C-24.73572847 6.89961375 -19.77898349 1.67954822 -12.625 -1.5 C-8.02327617 -2.13472053 -4.3061856 -1.78244433 0 0 Z M-17 8 C-17.33 8.99 -17.66 9.98 -18 11 C-13.71 11 -9.42 11 -5 11 C-5.33 9.35 -5.66 7.7 -6 6 C-10.59051103 4.51483467 -12.98409295 5.44442278 -17 8 Z " fill="#1B21D4" transform="translate(1133,489)"/>
<path d="M0 0 C1.60294922 0.15275391 1.60294922 0.15275391 3.23828125 0.30859375 C4.45064453 0.43427734 4.45064453 0.43427734 5.6875 0.5625 C5.54640014 2.66698938 5.39945825 4.7710877 5.25 6.875 C5.16878906 8.04675781 5.08757812 9.21851563 5.00390625 10.42578125 C4.6875 13.5625 4.6875 13.5625 3.6875 16.5625 C2.0375 16.5625 0.3875 16.5625 -1.3125 16.5625 C-1.8075 11.6125 -1.8075 11.6125 -2.3125 6.5625 C-4.6225 6.8925 -6.9325 7.2225 -9.3125 7.5625 C-9.9725 9.2125 -10.6325 10.8625 -11.3125 12.5625 C-8.94865844 15.00259451 -6.69589908 17.27334785 -3.9765625 19.32421875 C2.30181017 24.20629719 2.30181017 24.20629719 3.40625 28.08984375 C3.60539051 33.60769543 2.51736982 37.43802481 -1.3125 41.5625 C-6.16064895 45.49011434 -10.17443932 46.15650587 -16.3125 45.5625 C-19.3125 44.5625 -19.3125 44.5625 -21.3125 43.5625 C-21.3125 44.2225 -21.3125 44.8825 -21.3125 45.5625 C-22.9625 45.5625 -24.6125 45.5625 -26.3125 45.5625 C-25.72759121 39.42095775 -24.77183748 33.55570151 -23.3125 27.5625 C-21.6625 27.5625 -20.0125 27.5625 -18.3125 27.5625 C-18.22613281 28.18898438 -18.13976563 28.81546875 -18.05078125 29.4609375 C-17.33445466 34.62842663 -17.33445466 34.62842663 -13.9375 38.25 C-10.89049654 38.61273851 -9.72155468 38.45532868 -7.3125 36.5625 C-6.05554733 34.78536468 -6.05554733 34.78536468 -6.3125 32.5625 C-8.47702139 29.97903898 -10.69990664 28.02108302 -13.39453125 26.00390625 C-17.21703041 23.02166816 -19.75983188 20.94831495 -20.5 16 C-20.59951578 11.11543384 -19.35195414 7.71882831 -15.94921875 4.12109375 C-10.83780884 -0.51483617 -6.62116831 -0.65484082 0 0 Z " fill="#1B21D3" transform="translate(1646.3125,487.4375)"/>
<path d="M0 0 C1.60294922 0.15275391 1.60294922 0.15275391 3.23828125 0.30859375 C4.45064453 0.43427734 4.45064453 0.43427734 5.6875 0.5625 C5.54640014 2.66698938 5.39945825 4.7710877 5.25 6.875 C5.16878906 8.04675781 5.08757812 9.21851563 5.00390625 10.42578125 C4.6875 13.5625 4.6875 13.5625 3.6875 16.5625 C2.0375 16.5625 0.3875 16.5625 -1.3125 16.5625 C-1.8075 11.6125 -1.8075 11.6125 -2.3125 6.5625 C-4.6225 6.8925 -6.9325 7.2225 -9.3125 7.5625 C-9.9725 9.2125 -10.6325 10.8625 -11.3125 12.5625 C-8.94865844 15.00259451 -6.69589908 17.27334785 -3.9765625 19.32421875 C2.30181017 24.20629719 2.30181017 24.20629719 3.40625 28.08984375 C3.60539051 33.60769543 2.51736982 37.43802481 -1.3125 41.5625 C-6.16064895 45.49011434 -10.17443932 46.15650587 -16.3125 45.5625 C-19.3125 44.5625 -19.3125 44.5625 -21.3125 43.5625 C-21.3125 44.2225 -21.3125 44.8825 -21.3125 45.5625 C-22.9625 45.5625 -24.6125 45.5625 -26.3125 45.5625 C-25.72759121 39.42095775 -24.77183748 33.55570151 -23.3125 27.5625 C-21.6625 27.5625 -20.0125 27.5625 -18.3125 27.5625 C-18.22613281 28.18898438 -18.13976563 28.81546875 -18.05078125 29.4609375 C-17.33445466 34.62842663 -17.33445466 34.62842663 -13.9375 38.25 C-10.89049654 38.61273851 -9.72155468 38.45532868 -7.3125 36.5625 C-6.05554733 34.78536468 -6.05554733 34.78536468 -6.3125 32.5625 C-8.47702139 29.97903898 -10.69990664 28.02108302 -13.39453125 26.00390625 C-17.21703041 23.02166816 -19.75983188 20.94831495 -20.5 16 C-20.59951578 11.11543384 -19.35195414 7.71882831 -15.94921875 4.12109375 C-10.83780884 -0.51483617 -6.62116831 -0.65484082 0 0 Z " fill="#1B21D3" transform="translate(1163.3125,487.4375)"/>
<path d="M0 0 C1.27230469 0.23976563 1.27230469 0.23976563 2.5703125 0.484375 C5.14172701 1.33860762 6.2316605 2.11672077 7.875 4.25 C8.875 7.625 8.875 7.625 8.875 11.25 C6.6875 14.25 6.6875 14.25 3.875 16.25 C1.80859375 16.12890625 1.80859375 16.12890625 -0.125 15.25 C-1.171875 13.40234375 -1.171875 13.40234375 -1.875 11.1875 C-2.11734375 10.45402344 -2.3596875 9.72054688 -2.609375 8.96484375 C-2.77953125 8.39894531 -2.9496875 7.83304687 -3.125 7.25 C-8.00273605 7.70374289 -10.64677888 8.77177888 -14.125 12.25 C-17.22977539 17.12893275 -18.94844357 22.49303873 -17.6875 28.24609375 C-16.58643221 31.25526198 -15.43619734 33.03132079 -12.8125 34.875 C-8.96499897 35.41186061 -7.33559687 34.39039791 -4.125 32.25 C-2.27692368 30.33903103 -0.73369852 28.37915981 0.875 26.25 C2.525 26.91 4.175 27.57 5.875 28.25 C5.0200393 34.19335586 0.04286643 38.29188009 -4.125 42.25 C-8.46162516 45.24475959 -12.92424426 45.82786175 -18.125 45.25 C-21.64973796 43.77452829 -24.37841445 41.67526487 -26.39453125 38.3671875 C-29.13648156 30.41993046 -27.55827025 21.2234606 -24.38671875 13.65625 C-20.99045808 7.17917082 -16.69262049 3.35469332 -10.125 0.25 C-6.45942072 -0.74263648 -3.71400895 -0.74961648 0 0 Z " fill="#1B21D3" transform="translate(1430.125,487.75)"/>
<path d="M0 0 C1.27230469 0.23976563 1.27230469 0.23976563 2.5703125 0.484375 C5.14172701 1.33860762 6.2316605 2.11672077 7.875 4.25 C8.875 7.625 8.875 7.625 8.875 11.25 C6.6875 14.25 6.6875 14.25 3.875 16.25 C1.80859375 16.12890625 1.80859375 16.12890625 -0.125 15.25 C-1.171875 13.40234375 -1.171875 13.40234375 -1.875 11.1875 C-2.11734375 10.45402344 -2.3596875 9.72054688 -2.609375 8.96484375 C-2.77953125 8.39894531 -2.9496875 7.83304687 -3.125 7.25 C-8.00273605 7.70374289 -10.64677888 8.77177888 -14.125 12.25 C-17.22977539 17.12893275 -18.94844357 22.49303873 -17.6875 28.24609375 C-16.58643221 31.25526198 -15.43619734 33.03132079 -12.8125 34.875 C-8.96499897 35.41186061 -7.33559687 34.39039791 -4.125 32.25 C-2.27692368 30.33903103 -0.73369852 28.37915981 0.875 26.25 C2.525 26.91 4.175 27.57 5.875 28.25 C5.0200393 34.19335586 0.04286643 38.29188009 -4.125 42.25 C-8.46162516 45.24475959 -12.92424426 45.82786175 -18.125 45.25 C-21.64973796 43.77452829 -24.37841445 41.67526487 -26.39453125 38.3671875 C-29.13648156 30.41993046 -27.55827025 21.2234606 -24.38671875 13.65625 C-20.99045808 7.17917082 -16.69262049 3.35469332 -10.125 0.25 C-6.45942072 -0.74263648 -3.71400895 -0.74961648 0 0 Z " fill="#1B21D3" transform="translate(1001.125,487.75)"/>
<path d="M0 0 C-1.31554597 8.98646288 -2.87813307 17.90043179 -4.625 26.8125 C-4.96917969 28.58463867 -4.96917969 28.58463867 -5.3203125 30.39257812 C-5.87796478 33.2621638 -6.43788492 36.13128583 -7 39 C-5.02 39.33 -3.04 39.66 -1 40 C-1.33 41.65 -1.66 43.3 -2 45 C-9.59 45 -17.18 45 -25 45 C-24.67 43.35 -24.34 41.7 -24 40 C-22.88496094 39.66355469 -21.76992187 39.32710937 -20.62109375 38.98046875 C-18.64589413 38.36851424 -18.64589413 38.36851424 -17 37 C-15.33779164 32.89936701 -14.73385671 28.67030286 -14.0625 24.3125 C-13.7521582 22.54422852 -13.7521582 22.54422852 -13.43554688 20.74023438 C-12.92897661 17.83040054 -12.45184297 14.91874701 -12 12 C-13.98 12 -15.96 12 -18 12 C-17.96484375 9.2109375 -17.96484375 9.2109375 -17 6 C-14.41536084 4.51696029 -12.33396537 3.5616171 -9.5625 2.625 C-8.86833984 2.36589844 -8.17417969 2.10679687 -7.45898438 1.83984375 C-2.43105159 0 -2.43105159 0 0 0 Z " fill="#1B21D4" transform="translate(1191,487)"/>
<path d="M0 0 C1.32368621 6.25742574 1.32368621 6.25742574 -0.0625 9.4375 C-2 11 -2 11 -5.0625 11.4375 C-6.031875 11.293125 -7.00125 11.14875 -8 11 C-10 8 -10 8 -9.875 5 C-9 2 -9 2 -7.25 0.0625 C-4.41184751 -1.27773867 -2.94905709 -0.90110078 0 0 Z " fill="#1A21D4" transform="translate(1621,469)"/>
<path d="M0 0 C1.32368621 6.25742574 1.32368621 6.25742574 -0.0625 9.4375 C-2 11 -2 11 -5.0625 11.4375 C-6.031875 11.293125 -7.00125 11.14875 -8 11 C-10 8 -10 8 -9.875 5 C-9 2 -9 2 -7.25 0.0625 C-4.41184751 -1.27773867 -2.94905709 -0.90110078 0 0 Z " fill="#1A21D4" transform="translate(1518,469)"/>
<path d="M0 0 C1.32368621 6.25742574 1.32368621 6.25742574 -0.0625 9.4375 C-2 11 -2 11 -5.0625 11.4375 C-6.031875 11.293125 -7.00125 11.14875 -8 11 C-10 8 -10 8 -9.875 5 C-9 2 -9 2 -7.25 0.0625 C-4.41184751 -1.27773867 -2.94905709 -0.90110078 0 0 Z " fill="#1A21D4" transform="translate(1193,469)"/>
<path d="M0 0 C1.32368621 6.25742574 1.32368621 6.25742574 -0.0625 9.4375 C-2 11 -2 11 -5.0625 11.4375 C-6.031875 11.293125 -7.00125 11.14875 -8 11 C-10 8 -10 8 -9.875 5 C-9 2 -9 2 -7.25 0.0625 C-4.41184751 -1.27773867 -2.94905709 -0.90110078 0 0 Z " fill="#1A21D4" transform="translate(973,469)"/>
</svg>
